<?xml version="1.0" standalone="no"?>
<!DOCTYPE svg PUBLIC "-//W3C//DTD SVG 20010904//EN"
 "http://www.w3.org/TR/2001/REC-SVG-20010904/DTD/svg10.dtd">
<svg version="1.0" xmlns="http://www.w3.org/2000/svg"
 width="1280.000000pt" height="1280.000000pt" viewBox="0 0 1280.000000 1280.000000"
 preserveAspectRatio="xMidYMid meet">
<g transform="translate(0.000000,1280.000000) scale(0.100000,-0.100000)"
fill="#000000" stroke="none">
<path d="M6185 10633 c-1165 -30 -2135 -354 -2905 -969 -173 -138 -485 -450
-624 -624 -498 -624 -774 -1308 -866 -2150 -32 -285 -29 -766 5 -1064 120
-1040 579 -1911 1369 -2599 541 -471 1207 -789 1986 -946 626 -126 1407 -151
2090 -65 1260 158 2220 670 2935 1564 85 106 258 363 327 485 384 679 565
1491 527 2366 -42 970 -326 1759 -885 2459 -127 158 -395 430 -545 553 -673
549 -1508 865 -2543 962 -163 15 -634 36 -726 33 -25 -1 -90 -3 -145 -5z m487
-2671 c310 -83 570 -327 703 -661 107 -269 151 -624 134 -1072 -25 -661 -197
-1063 -555 -1298 -95 -62 -207 -107 -334 -133 -130 -27 -376 -21 -495 11 -275
76 -518 282 -656 554 -118 233 -176 522 -186 929 -16 660 109 1105 390 1391
155 157 332 251 551 293 104 20 349 12 448 -14z"/>
</g>
</svg>
